PARTICIPANTS: use this file for creating the class diagram in mastery task 01
@startuml
class GetBookActivity {
+ GetBookResponse execute(final GetBookRequest request) : GetBookResponse
}

class GetPublishingStatusActivity {

}

class RemoveBookFromCatalogActivity {
+ RemoveBookFromCatalogResponse execute(RemoveBookFromCatalogRequest removeBookFromCatalogRequest) : RemoveBookFromCatalogResponse
}

class SubmitBookForPublishingActivity {
+ SubmitBookForPublishingResponse execute(SubmitBookForPublishingRequest request) : SubmitBookForPublishingResponse
}

class RecommendationsServiceClient {

}

class CatalogDao {
- dynamoDbMapper : DynamoDBMapper
- CatalogItemVersion getLatestVersionOfBook(String bookId) : results
+ CatalogItemVersion getBookFromCatalog(String bookId) : book
}

class PublishingStatusDao {
- dynamoDbMapper : DynamoDBMapper
}

class CatalogItemVersion {
- @DynamoDBHashKey bookId : String
- @DynamoDBRangeKey version : int
- inactive : boolean
- title : String
- author : String
- text : String
- genre : BookGenre
}

class PublishingStatusItem {
- @DynamoDBHashKey publishingRecordId : String
- @DynamoDBRangeKey status : PublishingRecordStatus
- statusMessage : String
- bookId : String
}

class BookNotFoundException {

}

class PublishingStatusNotFoundException {

}

CatalogItemVersion --|> CatalogDao
PublishingStatusItem --|> PublishingStatusDao
CatalogDao --|> BookNotFoundException
GetBookActivity o-- RecommendationsServiceClient
GetBookActivity o-- CatalogDao
SubmitBookForPublishingActivity o-- PublishingStatusDao

@enduml